<?xml version="1.0" encoding="utf-8"?>
<!-- Generator: Adobe Illustrator 16.0.0, SVG Export Plug-In . SVG Version: 6.00 Build 0)  -->
<!DOCTYPE svg PUBLIC "-//W3C//DTD SVG 1.1//EN" "http://www.w3.org/Graphics/SVG/1.1/DTD/svg11.dtd">
<svg version="1.1" id="Layer_1" xmlns="http://www.w3.org/2000/svg" xmlns:xlink="http://www.w3.org/1999/xlink" x="0px" y="0px"
	 width="512px" height="512px" viewBox="0 0 512 512" enable-background="new 0 0 512 512" xml:space="preserve">
<g>
	<path fill="#2E2230" d="M342.453,464.727c-5.875,0-11.68-0.881-17.257-2.631L45.919,375.129
		c-14.281-4.443-26.187-14.74-32.655-28.232c-1.808-3.797-3.179-7.852-4.07-12.055c-2.223-10.459-1.336-21.209,2.566-31.092
		l63.243-154.786c0.871-1.742,6.035-11.25,16.183-18.011c4.05-2.691,115.909-74.094,120.67-77.133
		c6.621-4.273,14.292-6.546,22.159-6.546c2.547,0,5.109,0.242,7.621,0.719c0.457,0.09,38.585,7.683,82.606,15.038
		c44.67,7.449,90.793,14.898,90.793,14.898c0.781,0.148,1.328,0.285,1.883,0.434c8.358,2.176,14.937,7.394,18.733,14.753
		l64.606,162.228c5.906,15.55,4.773,32.798-3.094,47.376c-1.641,3.008-3.352,5.625-5.25,8.031L388.623,442.369
		C377.615,456.369,360.358,464.727,342.453,464.727z"/>
	<path fill="#FFFFFF" d="M234.016,55.272c2.039,0,4.09,0.191,6.133,0.578c0,0,38.104,7.605,82.774,15.07
		c44.693,7.453,90.84,14.905,90.84,14.905c0.445,0.086,0.898,0.215,1.359,0.336c5.921,1.539,10.71,5.363,13.421,10.621
		l63.896,160.528l0.359,0.926c5.109,13.438,3.984,28.35-2.672,40.686c-1.305,2.391-2.773,4.695-4.491,6.875L382.326,437.432
		c-9.702,12.344-24.608,19.297-39.873,19.297c-4.969,0-9.977-0.734-14.867-2.266L48.298,367.49
		c-12.176-3.789-22.308-12.555-27.819-24.055c-1.566-3.281-2.715-6.742-3.461-10.258c-1.863-8.771-1.16-18.021,2.184-26.49
		l63.208-154.697c0,0,4.477-8.558,13.214-14.382c4.027-2.676,120.538-77.047,120.538-77.047
		C221.532,57.093,227.712,55.272,234.016,55.272 M234.016,39.273c-9.41,0-18.581,2.715-26.534,7.848
		c-11.867,7.574-116.679,74.481-120.714,77.161c-11.82,7.882-17.882,19.046-18.538,20.296l-0.348,0.664l-0.285,0.699L4.389,300.633
		c-4.55,11.523-5.57,23.867-3.023,35.865c1.023,4.828,2.597,9.477,4.675,13.828c7.437,15.523,21.101,27.334,37.502,32.436
		l279.285,86.973c6.327,1.984,12.937,2.992,19.624,2.992c20.335,0,39.943-9.498,52.451-25.404l103.315-131.65
		c2.156-2.734,4.109-5.711,5.953-9.086c9.007-16.695,10.296-36.365,3.578-54.037l-0.398-1.027L443.409,90.865l-0.289-0.723
		l-0.359-0.691c-4.78-9.273-13.39-16.116-23.616-18.772c-0.905-0.242-1.632-0.426-2.351-0.562l-0.242-0.047l-0.234-0.039
		c-0.016,0-46.115-7.445-90.762-14.89c-43.882-7.332-81.896-14.902-82.274-14.98C240.125,39.562,237.059,39.273,234.016,39.273
		L234.016,39.273z"/>
	<path fill="#FFFFFF" d="M56.368,341.545c-5.047-1.57-9.093-5.07-11.375-9.828c-2.289-4.771-2.473-10.131-0.582-14.896
		l54.244-132.772c23.401,18.21,65.435,31.354,86.403,37.1c41.764,11.469,113.562,20.789,133.74,16.167l19.335,191.835
		C337.312,428.986,56.368,341.545,56.368,341.545z"/>
	<path fill="#FFFFFF" d="M327.773,200.95c-4.944,6.328-12.351,10.227-20.327,10.723c-21.491,1.285-63.005-2.391-115.194-16.718
		c-50.15-13.773-72.435-28.011-80.168-35.065l118.827-76.5c1.257-0.816,2.757-1.117,4.417-0.805c0,0,29.565,6.042,70.883,13.015
		c41.343,6.976,92.246,15.151,92.246,15.151L327.773,200.95z"/>
	<g>
		<path fill="#2FC872" d="M207.771,123.305c0,0,36.721,10.562,58.005,14.949c21.272,4.383,59.607,10.792,59.607,10.792
			l21.944-25.812c0,0-37.397-5.941-59.146-9.367c-21.741-3.426-49.662-9.238-49.662-9.238L207.771,123.305z"/>
		<path fill="#2FC872" d="M159.418,157.002c0,0,34.147,10.894,61.165,18.034c27.019,7.125,72.239,14.265,72.239,14.265
			l23.015-25.557c0,0-44.389-6.742-68.88-12.492c-26.683-6.262-55.986-14.21-55.986-14.21L159.418,157.002z"/>
	</g>
	<g>
		<path fill="#2E2230" d="M137.271,338.576l-18.703-5.898c-0.875-0.281-1.152-0.648-1.406-1.43l-3.355-13.998
			c-0.258-0.789-0.543-1-1.57-1.336L92.8,309.789c-1.027-0.32-1.332-0.281-1.664,0.328l-5.035,11.344
			c-0.344,0.609-0.652,0.789-1.379,0.547l-18.558-5.844c-1.324-0.414-1.875-1.273-1.367-2.273l34.131-75.919
			c0.332-0.602,0.645-0.793,1.527-0.512l13.109,4.125c0.734,0.23,1.164,0.648,1.414,1.449l23.878,94.19
			C139.235,338.482,138.743,339.037,137.271,338.576 M105.572,269.611l-0.59-0.18c-0.512,3.531-7.613,24.326-7.613,24.326
			c-0.348,0.734,0.191,1.742,1.664,2.219l8.98,2.836c1.32,0.422,1.957-0.242,1.727-1.172
			C109.74,297.641,105.65,273.33,105.572,269.611"/>
		<path fill="#2E2230" d="M211.771,362.037l-15.019-4.742c-0.594-0.18-1.309-0.82-1.566-1.477c0,0-23.792-55.67-24.28-57.521
			l-0.598-0.039c0.141,5.148-2.031,48.662-2.031,48.662c-0.059,0.969-0.531,1.258-1.559,0.93l-17.371-5.469
			c-0.878-0.289-1.453-0.891-1.39-1.859l5.128-85.066c0.059-0.973,0.676-1.211,1.559-0.93l15.304,4.82
			c0.73,0.23,1.305,0.699,1.57,1.348c0,0,23.885,56.682,24.241,58.229l0.605,0.047c0.035-5.688,2.211-49.193,2.211-49.193
			c0.047-0.977,0.371-1.289,1.402-0.977l17.085,5.383c0.886,0.281,1.449,0.875,1.382,1.859l-5.125,85.059
			C213.267,362.084,212.798,362.357,211.771,362.037"/>
		<path fill="#2E2230" d="M272.745,340.748l-2.305,38.357c-0.047,0.969-0.367,1.305-1.406,0.969l-17.519-5.516
			c-1.023-0.328-1.449-0.875-1.395-1.857l2.316-38.359l-24.608-54.637c-0.668-1.344-0.023-2.148,1.305-1.719l20.167,6.35
			c0.883,0.273,1.453,0.742,1.848,1.57l11.374,27.891c0.656,1.633,2.129,2.086,2.941,0.93l14.539-19.711
			c0.492-0.562,1.102-0.656,1.827-0.422l20.039,6.289c1.461,0.477,1.852,1.445,1.047,2.469L272.745,340.748z"/>
	</g>
</g>
</svg>
